<?xml version="1.0" standalone="no"?>
<!DOCTYPE svg PUBLIC "-//W3C//DTD SVG 20010904//EN"
 "http://www.w3.org/TR/2001/REC-SVG-20010904/DTD/svg10.dtd">
<svg version="1.0" xmlns="http://www.w3.org/2000/svg"
 width="204.000000pt" height="204.000000pt" viewBox="0 0 204.000000 204.000000"
 preserveAspectRatio="xMidYMid meet">
<metadata>
Created by potrace 1.11, written by Peter Selinger 2001-2013
</metadata>
<g transform="translate(0.000000,204.000000) scale(0.100000,-0.100000)"
fill="#000000" stroke="none">
<path d="M1028 1975 c-2 -2 -46 -5 -98 -8 -100 -6 -124 -11 -230 -46 -199 -66
-383 -211 -496 -391 -99 -158 -145 -322 -144 -513 1 -81 5 -152 10 -152 1 0 3
-9 4 -20 2 -11 8 -39 15 -63 7 -23 9 -48 5 -54 -4 -6 -3 -8 3 -5 6 4 14 -4 17
-18 10 -39 56 -135 88 -182 15 -23 28 -44 28 -47 0 -19 195 -213 223 -222 9
-3 15 -10 11 -15 -3 -5 -2 -9 3 -8 21 4 34 -2 27 -13 -4 -6 -3 -8 3 -5 13 8
65 -27 56 -38 -5 -4 -3 -5 4 -2 16 10 44 -3 36 -16 -3 -5 -1 -7 5 -3 6 3 28 0
49 -8 21 -8 47 -17 58 -22 11 -4 25 -8 30 -9 6 -2 30 -8 55 -15 63 -17 89 -21
138 -20 28 1 42 -3 42 -12 0 -8 3 -9 8 -3 10 15 104 16 95 1 -4 -6 1 -5 10 3
9 7 26 11 36 8 11 -3 21 -1 23 3 2 5 23 10 48 12 25 2 50 6 55 10 13 7 64 19
68 16 2 -2 11 3 20 11 10 7 17 11 17 8 0 -4 35 11 77 33 42 21 82 36 87 33 6
-3 8 -3 4 2 -8 8 18 32 35 33 5 0 14 8 21 18 7 9 18 14 25 10 7 -4 10 -2 9 5
-2 7 8 18 22 26 14 7 21 13 17 13 -5 0 6 12 24 28 18 15 37 26 42 24 5 -1 6 2
2 7 -8 14 26 51 39 44 6 -3 8 -3 4 2 -11 11 31 67 44 59 6 -4 8 -2 5 4 -8 12
32 92 45 92 5 0 6 4 3 10 -3 5 -2 10 3 10 5 0 13 10 17 22 4 13 8 25 9 28 1 3
8 23 15 45 8 22 16 45 20 50 6 11 8 17 10 41 0 9 6 12 13 8 7 -4 8 -3 4 4 -3
6 -2 40 4 75 12 76 16 259 6 275 -4 7 -1 12 6 12 9 0 10 3 2 8 -6 4 -14 21
-17 37 -17 97 -47 187 -84 252 -13 24 -21 49 -17 55 4 6 3 8 -3 5 -5 -3 -18 8
-28 26 -10 18 -34 52 -54 77 -20 24 -35 48 -33 52 1 5 -4 8 -11 8 -14 0 -47
35 -47 51 0 5 -4 8 -9 4 -5 -3 -18 6 -29 20 -11 14 -25 25 -30 25 -6 0 -18 10
-26 22 -9 12 -16 19 -16 15 0 -5 -15 2 -32 15 -40 28 -149 81 -203 98 -22 7
-44 15 -50 18 -5 3 -16 7 -25 8 -8 1 -28 5 -45 8 -16 4 -55 9 -85 12 -30 3
-63 6 -72 8 -9 2 -18 3 -20 1z"/>
<path d="M1315 100 c-3 -5 -1 -10 4 -10 6 0 11 5 11 10 0 6 -2 10 -4 10 -3 0
-8 -4 -11 -10z"/>
</g>
</svg>
